# xmcd CD database file
#
# Track frame offsets:
#	150
#	18151
#	33793
#	56789
#	75049
#	93623
#	110261
#	127600
#	147950
#	162163
#	177452
#	193415
#	212438
#	233499
#	256530
#	275057
#	288780
#	305681
#	318975
#
# Disc length: 4473 seconds
#
# Revision: 2
# Processed by: cddbd v1.5.2PL0 Copyright (c) Steve Scherf et al.
# Submitted via: CDex 2.07
#
DISCID=f4117713
DTITLE=Alan Jackson - Genuine The Alan Jackson Story [CD03)
DYEAR=2015
DGENRE=Country
TTITLE0=Where I Come From
TTITLE1=When Somebody Loves You
TTITLE2=Where Were You (When The World Stopped Turning)
TTITLE3=Drive (For Daddy Gene)
TTITLE4=Work In Progress
TTITLE5=That'd Be Alright
TTITLE6=It's Five O'Clock Somewhere - With Jimmy Buffett
TTITLE7=Remember When
TTITLE8=Too Much Of A Good Thing
TTITLE9=Monday Morning Church
TTITLE10=Like Red On A Rose
TTITLE11=A Woman's Love
TTITLE12=Small Town Southern Man
TTITLE13=Good Time
TTITLE14=Country Boy
TTITLE15=Sissy's Song
TTITLE16=As She's Walking Away - Zac Brown Band Ft. Alan Jackson
TTITLE17=Love Is Hard
TTITLE18=Ain't Just A Southern Thing
EXTD=YEAR: 2015
EXTT0=
EXTT1=
EXTT2=
EXTT3=
EXTT4=
EXTT5=
EXTT6=
EXTT7=
EXTT8=
EXTT9=
EXTT10=
EXTT11=
EXTT12=
EXTT13=
EXTT14=
EXTT15=
EXTT16=
EXTT17=
EXTT18=
PLAYORDER=
